<?xml version="1.0" encoding="UTF-8" standalone="no"?>
<!DOCTYPE svg PUBLIC "-//W3C//DTD SVG 1.1//EN"
 "http://www.w3.org/Graphics/SVG/1.1/DTD/svg11.dtd">
<!-- Generated by graphviz version 2.43.0 (0)
 -->
<!-- Title: dependency&#45;cruiser output Pages: 1 -->
<svg width="420pt" height="352pt"
 viewBox="0.00 0.00 420.00 352.00" xmlns="http://www.w3.org/2000/svg" xmlns:xlink="http://www.w3.org/1999/xlink">
<g id="graph0" class="graph" transform="scale(1 1) rotate(0) translate(4 348)">
<title>dependency&#45;cruiser output</title>
<polygon fill="white" stroke="transparent" points="-4,4 -4,-348 416,-348 416,4 -4,4"/>
<g id="clust1" class="cluster">
<title>cluster_lib</title>
<path fill="#ffffff" stroke="black" stroke-width="2" d="M20,-67C20,-67 294,-67 294,-67 300,-67 306,-73 306,-79 306,-79 306,-257 306,-257 306,-263 300,-269 294,-269 294,-269 20,-269 20,-269 14,-269 8,-263 8,-257 8,-257 8,-79 8,-79 8,-73 14,-67 20,-67"/>
<text text-anchor="middle" x="157" y="-257.8" font-family="Helvetica,sans-Serif" font-weight="bold" font-size="9.00">lib</text>
</g>
<g id="clust2" class="cluster">
<title>cluster_lib/event&#45;emitter&#45;as&#45;async&#45;generator</title>
<path fill="#ffffff" stroke="black" stroke-width="2" d="M74,-191C74,-191 241,-191 241,-191 247,-191 253,-197 253,-203 253,-203 253,-231 253,-231 253,-237 247,-243 241,-243 241,-243 74,-243 74,-243 68,-243 62,-237 62,-231 62,-231 62,-203 62,-203 62,-197 68,-191 74,-191"/>
<text text-anchor="middle" x="157.5" y="-231.8" font-family="Helvetica,sans-Serif" font-weight="bold" font-size="9.00">event&#45;emitter&#45;as&#45;async&#45;generator</text>
</g>
<g id="clust3" class="cluster">
<title>cluster_node_modules</title>
<path fill="#ffffff" stroke="black" stroke-width="2" d="M330,-176C330,-176 396,-176 396,-176 402,-176 408,-182 408,-188 408,-188 408,-216 408,-216 408,-222 402,-228 396,-228 396,-228 330,-228 330,-228 324,-228 318,-222 318,-216 318,-216 318,-188 318,-188 318,-182 324,-176 330,-176"/>
<text text-anchor="middle" x="363" y="-216.8" font-family="Helvetica,sans-Serif" font-weight="bold" font-size="9.00">node_modules</text>
</g>
<!-- .dependency&#45;cruiser.js -->
<g id="node1" class="node">
<title>.dependency&#45;cruiser.js</title>
<g id="a_node1"><a xlink:href=".dependency-cruiser.js" xlink:title=".dependency&#45;cruiser.js">
<path fill="#ccffcc" stroke="black" d="M210.5,-59C210.5,-59 103.5,-59 103.5,-59 100.5,-59 97.5,-56 97.5,-53 97.5,-53 97.5,-47 97.5,-47 97.5,-44 100.5,-41 103.5,-41 103.5,-41 210.5,-41 210.5,-41 213.5,-41 216.5,-44 216.5,-47 216.5,-47 216.5,-53 216.5,-53 216.5,-56 213.5,-59 210.5,-59"/>
<text text-anchor="middle" x="157" y="-47.8" font-family="Helvetica,sans-Serif" font-size="9.00">.dependency&#45;cruiser.js</text>
</a>
</g>
</g>
<!-- child_process -->
<g id="node2" class="node">
<title>child_process</title>
<g id="a_node2"><a xlink:href="https://nodejs.org/api/child_process.html" xlink:title="child_process">
<path fill="#ffffcc" stroke="grey" d="M395.5,-344C395.5,-344 330.5,-344 330.5,-344 327.5,-344 324.5,-341 324.5,-338 324.5,-338 324.5,-332 324.5,-332 324.5,-329 327.5,-326 330.5,-326 330.5,-326 395.5,-326 395.5,-326 398.5,-326 401.5,-329 401.5,-332 401.5,-332 401.5,-338 401.5,-338 401.5,-341 398.5,-344 395.5,-344"/>
<text text-anchor="middle" x="363" y="-332.8" font-family="Helvetica,sans-Serif" font-size="9.00" fill="grey">child_process</text>
</a>
</g>
</g>
<!-- cnd -->
<g id="node3" class="node">
<title>cnd</title>
<g id="a_node3"><a xlink:title="cnd">
<path fill="#ffffcc" stroke="black" d="M384,-314C384,-314 342,-314 342,-314 339,-314 336,-311 336,-308 336,-308 336,-302 336,-302 336,-299 339,-296 342,-296 342,-296 384,-296 384,-296 387,-296 390,-299 390,-302 390,-302 390,-308 390,-308 390,-311 387,-314 384,-314"/>
<text text-anchor="middle" x="363" y="-302.8" font-family="Helvetica,sans-Serif" font-size="9.00">cnd</text>
</a>
</g>
</g>
<!-- events -->
<g id="node4" class="node">
<title>events</title>
<g id="a_node4"><a xlink:href="https://nodejs.org/api/events.html" xlink:title="events">
<path fill="#ffffcc" stroke="grey" d="M384,-78C384,-78 342,-78 342,-78 339,-78 336,-75 336,-72 336,-72 336,-66 336,-66 336,-63 339,-60 342,-60 342,-60 384,-60 384,-60 387,-60 390,-63 390,-66 390,-66 390,-72 390,-72 390,-75 387,-78 384,-78"/>
<text text-anchor="middle" x="363" y="-66.8" font-family="Helvetica,sans-Serif" font-size="9.00" fill="grey">events</text>
</a>
</g>
</g>
<!-- fs -->
<g id="node5" class="node">
<title>fs</title>
<g id="a_node5"><a xlink:href="https://nodejs.org/api/fs.html" xlink:title="fs">
<path fill="#ffffcc" stroke="grey" d="M384,-108C384,-108 342,-108 342,-108 339,-108 336,-105 336,-102 336,-102 336,-96 336,-96 336,-93 339,-90 342,-90 342,-90 384,-90 384,-90 387,-90 390,-93 390,-96 390,-96 390,-102 390,-102 390,-105 387,-108 384,-108"/>
<text text-anchor="middle" x="363" y="-96.8" font-family="Helvetica,sans-Serif" font-size="9.00" fill="grey">fs</text>
</a>
</g>
</g>
<!-- intertext&#45;splitlines -->
<g id="node6" class="node">
<title>intertext&#45;splitlines</title>
<g id="a_node6"><a xlink:title="intertext&#45;splitlines">
<path fill="#ffffcc" stroke="black" d="M406,-254C406,-254 320,-254 320,-254 317,-254 314,-251 314,-248 314,-248 314,-242 314,-242 314,-239 317,-236 320,-236 320,-236 406,-236 406,-236 409,-236 412,-239 412,-242 412,-242 412,-248 412,-248 412,-251 409,-254 406,-254"/>
<text text-anchor="middle" x="363" y="-242.8" font-family="Helvetica,sans-Serif" font-size="9.00">intertext&#45;splitlines</text>
</a>
</g>
</g>
<!-- intertype -->
<g id="node7" class="node">
<title>intertype</title>
<g id="a_node7"><a xlink:title="intertype">
<path fill="#ffffcc" stroke="black" d="M386,-284C386,-284 340,-284 340,-284 337,-284 334,-281 334,-278 334,-278 334,-272 334,-272 334,-269 337,-266 340,-266 340,-266 386,-266 386,-266 389,-266 392,-269 392,-272 392,-272 392,-278 392,-278 392,-281 389,-284 386,-284"/>
<text text-anchor="middle" x="363" y="-272.8" font-family="Helvetica,sans-Serif" font-size="9.00">intertype</text>
</a>
</g>
</g>
<!-- lib/coffeescript&#45;class&#45;instance&#45;properties.js -->
<g id="node8" class="node">
<title>lib/coffeescript&#45;class&#45;instance&#45;properties.js</title>
<g id="a_node8"><a xlink:href="lib/coffeescript-class-instance-properties.js" xlink:title="no&#45;orphans">
<path fill="#ccffcc" stroke="orange" d="M248,-183C248,-183 66,-183 66,-183 63,-183 60,-180 60,-177 60,-177 60,-171 60,-171 60,-168 63,-165 66,-165 66,-165 248,-165 248,-165 251,-165 254,-168 254,-171 254,-171 254,-177 254,-177 254,-180 251,-183 248,-183"/>
<text text-anchor="start" x="68" y="-171.8" font-family="Helvetica,sans-Serif" font-size="9.00" fill="orange">coffeescript&#45;class&#45;instance&#45;properties.js</text>
</a>
</g>
</g>
<!-- lib/coffeescript&#45;programmatic&#45;functions&#45;with&#45;correct&#45;names.js -->
<g id="node9" class="node">
<title>lib/coffeescript&#45;programmatic&#45;functions&#45;with&#45;correct&#45;names.js</title>
<g id="a_node9"><a xlink:href="lib/coffeescript-programmatic-functions-with-correct-names.js" xlink:title="no&#45;orphans">
<path fill="#ccffcc" stroke="orange" d="M292,-153C292,-153 22,-153 22,-153 19,-153 16,-150 16,-147 16,-147 16,-141 16,-141 16,-138 19,-135 22,-135 22,-135 292,-135 292,-135 295,-135 298,-138 298,-141 298,-141 298,-147 298,-147 298,-150 295,-153 292,-153"/>
<text text-anchor="start" x="24" y="-141.8" font-family="Helvetica,sans-Serif" font-size="9.00" fill="orange">coffeescript&#45;programmatic&#45;functions&#45;with&#45;correct&#45;names.js</text>
</a>
</g>
</g>
<!-- lib/event&#45;emitter&#45;as&#45;async&#45;generator/main.js -->
<g id="node10" class="node">
<title>lib/event&#45;emitter&#45;as&#45;async&#45;generator/main.js</title>
<g id="a_node10"><a xlink:href="lib/event-emitter-as-async-generator/main.js" xlink:title="main.js">
<path fill="#ffffcc" stroke="black" d="M178,-217C178,-217 136,-217 136,-217 133,-217 130,-214 130,-211 130,-211 130,-205 130,-205 130,-202 133,-199 136,-199 136,-199 178,-199 178,-199 181,-199 184,-202 184,-205 184,-205 184,-211 184,-211 184,-214 181,-217 178,-217"/>
<text text-anchor="start" x="140.5" y="-205.8" font-family="Helvetica,sans-Serif" font-size="9.00">main.js</text>
</a>
</g>
</g>
<!-- lib/event&#45;emitter&#45;as&#45;async&#45;generator/main.js&#45;&gt;child_process -->
<g id="edge1" class="edge">
<title>lib/event&#45;emitter&#45;as&#45;async&#45;generator/main.js&#45;&gt;child_process</title>
<g id="a_edge1"><a xlink:title="no&#45;core">
<path fill="none" stroke="red" stroke-dasharray="5,2" d="M168.2,-217.14C192.06,-238.1 254.03,-290.08 314,-320 316.64,-321.32 319.43,-322.55 322.27,-323.7"/>
<polygon fill="red" stroke="red" points="321.8,-325.76 328.15,-325.93 323.29,-321.84 321.8,-325.76"/>
</a>
</g>
<text text-anchor="middle" x="226.73" y="-270.12" font-family="Helvetica,sans-Serif" font-size="9.00" fill="red">no&#45;core</text>
</g>
<!-- lib/event&#45;emitter&#45;as&#45;async&#45;generator/main.js&#45;&gt;cnd -->
<g id="edge2" class="edge">
<title>lib/event&#45;emitter&#45;as&#45;async&#45;generator/main.js&#45;&gt;cnd</title>
<g id="a_edge2"><a xlink:title="not&#45;found">
<path fill="none" stroke="red" stroke-width="2" d="M173.05,-217.1C200.38,-233.34 260.31,-267.71 314,-290 319.09,-292.11 324.59,-294.1 329.99,-295.89"/>
<polygon fill="red" stroke="red" stroke-width="2" points="329.43,-297.91 335.79,-297.75 330.72,-293.91 329.43,-297.91"/>
</a>
</g>
<text text-anchor="middle" x="229.89" y="-253.9" font-family="Helvetica,sans-Serif" font-size="9.00" fill="red">not&#45;found</text>
</g>
<!-- lib/event&#45;emitter&#45;as&#45;async&#45;generator/main.js&#45;&gt;intertext&#45;splitlines -->
<g id="edge3" class="edge">
<title>lib/event&#45;emitter&#45;as&#45;async&#45;generator/main.js&#45;&gt;intertext&#45;splitlines</title>
<g id="a_edge3"><a xlink:title="not&#45;found">
<path fill="none" stroke="red" stroke-width="2" d="M184.25,-212.76C215.2,-218.37 267.47,-227.85 307.34,-235.09"/>
<polygon fill="red" stroke="red" stroke-width="2" points="307.35,-237.22 313.63,-236.23 308.1,-233.09 307.35,-237.22"/>
</a>
</g>
<text text-anchor="middle" x="226.66" y="-217.33" font-family="Helvetica,sans-Serif" font-size="9.00" fill="red">not&#45;found</text>
</g>
<!-- lib/event&#45;emitter&#45;as&#45;async&#45;generator/main.js&#45;&gt;intertype -->
<g id="edge4" class="edge">
<title>lib/event&#45;emitter&#45;as&#45;async&#45;generator/main.js&#45;&gt;intertype</title>
<g id="a_edge4"><a xlink:title="not&#45;found">
<path fill="none" stroke="red" stroke-width="2" d="M184.17,-216.89C215.12,-227.37 268.22,-245.22 314,-260 318.5,-261.45 323.24,-262.96 327.92,-264.44"/>
<polygon fill="red" stroke="red" stroke-width="2" points="327.44,-266.49 333.8,-266.28 328.7,-262.48 327.44,-266.49"/>
</a>
</g>
<text text-anchor="middle" x="281.54" y="-234.79" font-family="Helvetica,sans-Serif" font-size="9.00" fill="red">not&#45;found</text>
</g>
<!-- node_modules/.pnpm -->
<g id="node11" class="node">
<title>node_modules/.pnpm</title>
<g id="a_node11"><a xlink:href="https://www.npmjs.com/package/.pnpm" xlink:title=".pnpm">
<polygon fill="#c40b0a" fill-opacity="0.101961" stroke="black" points="390,-202 338,-202 336,-200 336,-184 388,-184 390,-186 390,-202"/>
<polyline fill="none" stroke="black" points="388,-200 336,-200 "/>
<polyline fill="none" stroke="black" points="388,-200 388,-184 "/>
<polyline fill="none" stroke="black" points="388,-200 390,-202 "/>
<text text-anchor="start" x="347.5" y="-190.8" font-family="Helvetica,sans-Serif" font-size="9.00" fill="#c40b0a">.pnpm</text>
</a>
</g>
</g>
<!-- lib/event&#45;emitter&#45;as&#45;async&#45;generator/main.js&#45;&gt;node_modules/.pnpm -->
<g id="edge5" class="edge">
<title>lib/event&#45;emitter&#45;as&#45;async&#45;generator/main.js&#45;&gt;node_modules/.pnpm</title>
<path fill="none" stroke="#000000" stroke-opacity="0.200000" d="M184.25,-206.07C221.43,-203.34 289.38,-198.34 329.63,-195.38"/>
<polygon fill="#000000" fill-opacity="0.200000" stroke="#000000" stroke-opacity="0.200000" points="330.02,-197.46 335.85,-194.92 329.71,-193.27 330.02,-197.46"/>
</g>
<!-- path -->
<g id="node12" class="node">
<title>path</title>
<g id="a_node12"><a xlink:href="https://nodejs.org/api/path.html" xlink:title="path">
<path fill="#ffffcc" stroke="grey" d="M384,-138C384,-138 342,-138 342,-138 339,-138 336,-135 336,-132 336,-132 336,-126 336,-126 336,-123 339,-120 342,-120 342,-120 384,-120 384,-120 387,-120 390,-123 390,-126 390,-126 390,-132 390,-132 390,-135 387,-138 384,-138"/>
<text text-anchor="middle" x="363" y="-126.8" font-family="Helvetica,sans-Serif" font-size="9.00" fill="grey">path</text>
</a>
</g>
</g>
<!-- lib/event&#45;emitter&#45;as&#45;async&#45;generator/main.js&#45;&gt;path -->
<g id="edge6" class="edge">
<title>lib/event&#45;emitter&#45;as&#45;async&#45;generator/main.js&#45;&gt;path</title>
<g id="a_edge6"><a xlink:title="no&#45;core">
<path fill="none" stroke="red" stroke-dasharray="5,2" d="M184.02,-214.34C216.94,-220.66 273.3,-225.55 306,-195 322.77,-179.34 299.01,-161.37 314,-144 318.15,-139.19 323.82,-135.9 329.8,-133.66"/>
<polygon fill="red" stroke="red" points="330.76,-135.56 335.85,-131.75 329.5,-131.55 330.76,-135.56"/>
</a>
</g>
<text text-anchor="middle" x="293.17" y="-162.97" font-family="Helvetica,sans-Serif" font-size="9.00" fill="red">no&#45;core</text>
</g>
<!-- steampipes -->
<g id="node13" class="node">
<title>steampipes</title>
<g id="a_node13"><a xlink:title="steampipes">
<path fill="#ffffcc" stroke="black" d="M391,-168C391,-168 335,-168 335,-168 332,-168 329,-165 329,-162 329,-162 329,-156 329,-156 329,-153 332,-150 335,-150 335,-150 391,-150 391,-150 394,-150 397,-153 397,-156 397,-156 397,-162 397,-162 397,-165 394,-168 391,-168"/>
<text text-anchor="middle" x="363" y="-156.8" font-family="Helvetica,sans-Serif" font-size="9.00">steampipes</text>
</a>
</g>
</g>
<!-- lib/event&#45;emitter&#45;as&#45;async&#45;generator/main.js&#45;&gt;steampipes -->
<g id="edge7" class="edge">
<title>lib/event&#45;emitter&#45;as&#45;async&#45;generator/main.js&#45;&gt;steampipes</title>
<g id="a_edge7"><a xlink:title="not&#45;found">
<path fill="none" stroke="red" stroke-width="2" d="M184.26,-213.49C216.42,-218.62 270.91,-221.94 306,-195 314.25,-188.66 306.41,-180.11 314,-173 316.61,-170.55 319.63,-168.53 322.85,-166.86"/>
<polygon fill="red" stroke="red" stroke-width="2" points="324.2,-168.56 328.83,-164.21 322.5,-164.72 324.2,-168.56"/>
</a>
</g>
<text text-anchor="middle" x="239.07" y="-206.64" font-family="Helvetica,sans-Serif" font-size="9.00" fill="red">not&#45;found</text>
</g>
<!-- lib/main.js -->
<g id="node14" class="node">
<title>lib/main.js</title>
<g id="a_node14"><a xlink:href="lib/main.js" xlink:title="main.js">
<path fill="#ffffcc" stroke="black" d="M178,-123C178,-123 136,-123 136,-123 133,-123 130,-120 130,-117 130,-117 130,-111 130,-111 130,-108 133,-105 136,-105 136,-105 178,-105 178,-105 181,-105 184,-108 184,-111 184,-111 184,-117 184,-117 184,-120 181,-123 178,-123"/>
<text text-anchor="start" x="140.5" y="-111.8" font-family="Helvetica,sans-Serif" font-size="9.00">main.js</text>
</a>
</g>
</g>
<!-- lib/main.js&#45;&gt;fs -->
<g id="edge8" class="edge">
<title>lib/main.js&#45;&gt;fs</title>
<g id="a_edge8"><a xlink:title="no&#45;core">
<path fill="none" stroke="red" stroke-dasharray="5,2" d="M184.25,-112.07C221.43,-109.34 289.38,-104.34 329.63,-101.38"/>
<polygon fill="red" stroke="red" points="330.02,-103.46 335.85,-100.92 329.71,-99.27 330.02,-103.46"/>
</a>
</g>
<text text-anchor="middle" x="242.67" y="-99.29" font-family="Helvetica,sans-Serif" font-size="9.00" fill="red">no&#45;core</text>
</g>
<!-- lib/main.js&#45;&gt;node_modules/.pnpm -->
<g id="edge9" class="edge">
<title>lib/main.js&#45;&gt;node_modules/.pnpm</title>
<path fill="none" stroke="#000000" stroke-opacity="0.200000" d="M184.26,-108.13C217.17,-102.45 273.25,-98.61 306,-129 320.89,-142.82 301.15,-158.27 314,-174 318.21,-179.15 324.02,-182.92 330.14,-185.66"/>
<polygon fill="#000000" fill-opacity="0.200000" stroke="#000000" stroke-opacity="0.200000" points="329.46,-187.65 335.82,-187.91 331.01,-183.75 329.46,-187.65"/>
</g>
<!-- lib/main.js&#45;&gt;path -->
<g id="edge10" class="edge">
<title>lib/main.js&#45;&gt;path</title>
<g id="a_edge10"><a xlink:title="no&#45;core">
<path fill="none" stroke="red" stroke-dasharray="5,2" d="M184.25,-115.93C221.43,-118.66 289.38,-123.66 329.63,-126.62"/>
<polygon fill="red" stroke="red" points="329.71,-128.73 335.85,-127.08 330.02,-124.54 329.71,-128.73"/>
</a>
</g>
<text text-anchor="middle" x="242.67" y="-114.31" font-family="Helvetica,sans-Serif" font-size="9.00" fill="red">no&#45;core</text>
</g>
<!-- lib/read&#45;undecoded&#45;lines&#45;from&#45;stdin.js -->
<g id="node15" class="node">
<title>lib/read&#45;undecoded&#45;lines&#45;from&#45;stdin.js</title>
<g id="a_node15"><a xlink:href="lib/read-undecoded-lines-from-stdin.js" xlink:title="read&#45;undecoded&#45;lines&#45;from&#45;stdin.js">
<path fill="#ffffcc" stroke="black" d="M237.5,-93C237.5,-93 76.5,-93 76.5,-93 73.5,-93 70.5,-90 70.5,-87 70.5,-87 70.5,-81 70.5,-81 70.5,-78 73.5,-75 76.5,-75 76.5,-75 237.5,-75 237.5,-75 240.5,-75 243.5,-78 243.5,-81 243.5,-81 243.5,-87 243.5,-87 243.5,-90 240.5,-93 237.5,-93"/>
<text text-anchor="start" x="78.5" y="-81.8" font-family="Helvetica,sans-Serif" font-size="9.00">read&#45;undecoded&#45;lines&#45;from&#45;stdin.js</text>
</a>
</g>
</g>
<!-- lib/read&#45;undecoded&#45;lines&#45;from&#45;stdin.js&#45;&gt;events -->
<g id="edge11" class="edge">
<title>lib/read&#45;undecoded&#45;lines&#45;from&#45;stdin.js&#45;&gt;events</title>
<g id="a_edge11"><a xlink:title="no&#45;core">
<path fill="none" stroke="red" stroke-dasharray="5,2" d="M243.63,-77.7C274.06,-75.47 306.48,-73.08 329.68,-71.38"/>
<polygon fill="red" stroke="red" points="329.85,-73.47 335.68,-70.94 329.54,-69.28 329.85,-73.47"/>
</a>
</g>
<text text-anchor="middle" x="272.21" y="-67.12" font-family="Helvetica,sans-Serif" font-size="9.00" fill="red">no&#45;core</text>
</g>
<!-- lib/read&#45;undecoded&#45;lines&#45;from&#45;stdin.js&#45;&gt;intertext&#45;splitlines -->
<g id="edge12" class="edge">
<title>lib/read&#45;undecoded&#45;lines&#45;from&#45;stdin.js&#45;&gt;intertext&#45;splitlines</title>
<g id="a_edge12"><a xlink:title="not&#45;found">
<path fill="none" stroke="red" stroke-width="2" d="M201,-74.99C234.5,-70.73 279.61,-71.52 306,-99 326.36,-120.2 295.66,-208.03 314,-231 314.19,-231.24 314.38,-231.47 314.58,-231.7"/>
<polygon fill="red" stroke="red" stroke-width="2" points="313.38,-233.45 319.21,-235.99 316.23,-230.37 313.38,-233.45"/>
</a>
</g>
<text text-anchor="middle" x="288.62" y="-153.6" font-family="Helvetica,sans-Serif" font-size="9.00" fill="red">not&#45;found</text>
</g>
<!-- readline -->
<g id="node16" class="node">
<title>readline</title>
<g id="a_node16"><a xlink:href="https://nodejs.org/api/readline.html" xlink:title="readline">
<path fill="#ffffcc" stroke="grey" d="M384,-48C384,-48 342,-48 342,-48 339,-48 336,-45 336,-42 336,-42 336,-36 336,-36 336,-33 339,-30 342,-30 342,-30 384,-30 384,-30 387,-30 390,-33 390,-36 390,-36 390,-42 390,-42 390,-45 387,-48 384,-48"/>
<text text-anchor="middle" x="363" y="-36.8" font-family="Helvetica,sans-Serif" font-size="9.00" fill="grey">readline</text>
</a>
</g>
</g>
<!-- lib/read&#45;undecoded&#45;lines&#45;from&#45;stdin.js&#45;&gt;readline -->
<g id="edge13" class="edge">
<title>lib/read&#45;undecoded&#45;lines&#45;from&#45;stdin.js&#45;&gt;readline</title>
<g id="a_edge13"><a xlink:title="no&#45;core">
<path fill="none" stroke="red" stroke-dasharray="5,2" d="M243.69,-84.76C265.17,-81.88 287.39,-76.03 306,-65 311.2,-61.92 309.09,-57.52 314,-54 318.69,-50.64 324.16,-48.01 329.69,-45.96"/>
<polygon fill="red" stroke="red" points="330.65,-47.85 335.68,-43.96 329.32,-43.87 330.65,-47.85"/>
</a>
</g>
<text text-anchor="middle" x="310.35" y="-74.52" font-family="Helvetica,sans-Serif" font-size="9.00" fill="red">no&#45;core</text>
</g>
<!-- util -->
<g id="node17" class="node">
<title>util</title>
<g id="a_node17"><a xlink:href="https://nodejs.org/api/util.html" xlink:title="util">
<path fill="#ffffcc" stroke="grey" d="M384,-18C384,-18 342,-18 342,-18 339,-18 336,-15 336,-12 336,-12 336,-6 336,-6 336,-3 339,0 342,0 342,0 384,0 384,0 387,0 390,-3 390,-6 390,-6 390,-12 390,-12 390,-15 387,-18 384,-18"/>
<text text-anchor="middle" x="363" y="-6.8" font-family="Helvetica,sans-Serif" font-size="9.00" fill="grey">util</text>
</a>
</g>
</g>
<!-- lib/read&#45;undecoded&#45;lines&#45;from&#45;stdin.js&#45;&gt;util -->
<g id="edge14" class="edge">
<title>lib/read&#45;undecoded&#45;lines&#45;from&#45;stdin.js&#45;&gt;util</title>
<g id="a_edge14"><a xlink:title="no&#45;core">
<path fill="none" stroke="red" stroke-dasharray="5,2" d="M243.68,-90.37C266.42,-87.78 289.27,-80.68 306,-65 319.55,-52.31 301.61,-37.83 314,-24 318.19,-19.32 323.82,-16.08 329.75,-13.85"/>
<polygon fill="red" stroke="red" points="330.66,-15.76 335.74,-11.94 329.39,-11.76 330.66,-15.76"/>
</a>
</g>
<text text-anchor="middle" x="288.54" y="-57.76" font-family="Helvetica,sans-Serif" font-size="9.00" fill="red">no&#45;core</text>
</g>
</g>
</svg>
